<?xml version="1.0" encoding="utf-8"?>
<!-- Generator: Adobe Illustrator 16.0.0, SVG Export Plug-In . SVG Version: 6.00 Build 0)  -->
<!DOCTYPE svg PUBLIC "-//W3C//DTD SVG 1.1//EN" "http://www.w3.org/Graphics/SVG/1.1/DTD/svg11.dtd">
<svg version="1.1" xmlns="http://www.w3.org/2000/svg" xmlns:xlink="http://www.w3.org/1999/xlink" x="0px" y="0px"
	 width="676.373px" height="347.109px" viewBox="0 0 676.373 347.109" enable-background="new 0 0 676.373 347.109"
	 xml:space="preserve">
<g id="Layer_2">
</g>
<g id="Layer_1">
	<g>
		
			<rect x="5.565" y="5.565" fill="#337C98" stroke="#72B5CF" stroke-width="11.1307" stroke-linecap="round" stroke-linejoin="round" stroke-miterlimit="10" width="665.242" height="335.979"/>
		<g>
			<g>
				<path fill="#FFFFFF" d="M182.547,42.5v6.016h7.59v3.104h-7.59v6.136h9.63v3.225h-13.68V39.29h13.68v3.21H182.547z"/>
				<path fill="#FFFFFF" d="M204.343,48.591c-0.1,0.16-0.205,0.272-0.315,0.337c-0.11,0.065-0.25,0.098-0.42,0.098
					c-0.18,0-0.373-0.05-0.577-0.15c-0.205-0.1-0.443-0.212-0.713-0.337s-0.577-0.237-0.922-0.338
					c-0.345-0.1-0.752-0.149-1.223-0.149c-0.73,0-1.302,0.155-1.717,0.465s-0.623,0.715-0.623,1.215c0,0.33,0.107,0.607,0.323,0.832
					c0.215,0.226,0.5,0.423,0.855,0.593c0.354,0.17,0.757,0.322,1.208,0.458c0.45,0.135,0.907,0.282,1.372,0.442
					c0.465,0.16,0.923,0.343,1.373,0.547c0.45,0.205,0.853,0.466,1.208,0.78c0.355,0.315,0.64,0.692,0.855,1.133
					s0.323,0.97,0.323,1.59c0,0.74-0.133,1.423-0.397,2.048c-0.265,0.625-0.658,1.165-1.178,1.62s-1.163,0.81-1.927,1.064
					c-0.765,0.255-1.648,0.383-2.647,0.383c-0.53,0-1.048-0.048-1.553-0.143c-0.505-0.096-0.99-0.228-1.455-0.397
					c-0.465-0.17-0.895-0.37-1.29-0.601c-0.395-0.229-0.742-0.479-1.042-0.75l0.855-1.409c0.11-0.17,0.24-0.301,0.39-0.391
					s0.34-0.135,0.57-0.135s0.448,0.065,0.653,0.195c0.205,0.13,0.442,0.27,0.712,0.42c0.27,0.149,0.587,0.29,0.953,0.42
					c0.365,0.13,0.827,0.194,1.387,0.194c0.44,0,0.817-0.052,1.133-0.157c0.315-0.104,0.575-0.242,0.78-0.412
					s0.355-0.368,0.45-0.593c0.095-0.225,0.142-0.457,0.142-0.697c0-0.36-0.107-0.655-0.322-0.885
					c-0.215-0.23-0.5-0.431-0.855-0.601s-0.76-0.322-1.215-0.457c-0.456-0.136-0.92-0.282-1.395-0.442
					c-0.475-0.16-0.94-0.348-1.395-0.563c-0.455-0.215-0.86-0.488-1.215-0.818c-0.355-0.329-0.64-0.734-0.855-1.215
					c-0.215-0.479-0.322-1.06-0.322-1.739c0-0.631,0.125-1.23,0.375-1.801c0.25-0.569,0.617-1.067,1.103-1.492
					c0.485-0.425,1.09-0.765,1.815-1.02c0.725-0.256,1.563-0.383,2.513-0.383c1.06,0,2.025,0.175,2.895,0.524
					c0.87,0.351,1.595,0.811,2.175,1.381L204.343,48.591z"/>
				<path fill="#FFFFFF" d="M213.268,61.221c-1.34,0-2.368-0.378-3.083-1.133s-1.072-1.797-1.072-3.127v-8.596h-1.575
					c-0.2,0-0.37-0.064-0.51-0.194c-0.14-0.13-0.21-0.325-0.21-0.585v-1.471l2.475-0.404l0.78-4.2c0.05-0.2,0.145-0.355,0.285-0.465
					c0.14-0.11,0.32-0.165,0.54-0.165h1.92v4.845h4.11v2.64h-4.11v8.34c0,0.48,0.118,0.855,0.353,1.125
					c0.235,0.271,0.558,0.405,0.968,0.405c0.23,0,0.422-0.027,0.578-0.082c0.155-0.056,0.29-0.113,0.405-0.173
					c0.115-0.06,0.217-0.117,0.308-0.173c0.09-0.055,0.18-0.082,0.27-0.082c0.11,0,0.2,0.027,0.27,0.082
					c0.07,0.056,0.145,0.138,0.225,0.248l1.11,1.8c-0.54,0.45-1.16,0.79-1.86,1.02C214.743,61.105,214.018,61.221,213.268,61.221z"
					/>
				<path fill="#FFFFFF" d="M232.558,45.591v15.39h-2.265c-0.49,0-0.8-0.225-0.93-0.675l-0.255-1.23
					c-0.63,0.641-1.325,1.158-2.085,1.553c-0.76,0.395-1.655,0.593-2.685,0.593c-0.84,0-1.583-0.143-2.228-0.428
					s-1.188-0.688-1.627-1.207c-0.44-0.521-0.772-1.138-0.998-1.853s-0.337-1.503-0.337-2.363v-9.779h3.705v9.779
					c0,0.94,0.218,1.668,0.653,2.183c0.435,0.516,1.087,0.772,1.958,0.772c0.64,0,1.24-0.143,1.8-0.427
					c0.56-0.285,1.09-0.678,1.59-1.178v-11.13H232.558z"/>
				<path fill="#FFFFFF" d="M249.582,38.69v22.29h-2.265c-0.49,0-0.8-0.225-0.93-0.675l-0.315-1.485
					c-0.62,0.71-1.333,1.285-2.138,1.726c-0.805,0.439-1.743,0.659-2.813,0.659c-0.84,0-1.61-0.175-2.31-0.524
					c-0.7-0.351-1.302-0.857-1.807-1.522c-0.505-0.665-0.895-1.487-1.17-2.468c-0.275-0.979-0.412-2.1-0.412-3.36
					c0-1.14,0.155-2.199,0.465-3.18c0.31-0.979,0.755-1.83,1.335-2.55s1.275-1.282,2.085-1.688s1.72-0.607,2.73-0.607
					c0.86,0,1.595,0.135,2.205,0.405c0.61,0.27,1.155,0.635,1.635,1.095V38.69H249.582z M245.877,49.521
					c-0.42-0.51-0.878-0.87-1.373-1.08c-0.495-0.21-1.028-0.315-1.598-0.315c-0.56,0-1.065,0.105-1.515,0.315
					c-0.45,0.21-0.835,0.527-1.155,0.952c-0.32,0.426-0.565,0.966-0.735,1.62c-0.17,0.655-0.255,1.428-0.255,2.317
					c0,0.9,0.073,1.663,0.218,2.288c0.145,0.625,0.353,1.135,0.623,1.53c0.27,0.395,0.6,0.68,0.99,0.854s0.825,0.263,1.305,0.263
					c0.77,0,1.425-0.16,1.965-0.48c0.54-0.319,1.05-0.774,1.53-1.364V49.521z"/>
				<path fill="#FFFFFF" d="M257.592,41.105c0,0.32-0.065,0.62-0.195,0.9c-0.13,0.279-0.302,0.524-0.518,0.734
					c-0.215,0.21-0.467,0.378-0.757,0.503s-0.6,0.188-0.93,0.188c-0.32,0-0.622-0.063-0.907-0.188s-0.533-0.293-0.743-0.503
					s-0.377-0.455-0.502-0.734c-0.125-0.28-0.188-0.58-0.188-0.9c0-0.33,0.063-0.64,0.188-0.93s0.292-0.54,0.502-0.75
					s0.458-0.378,0.743-0.503s0.587-0.188,0.907-0.188c0.33,0,0.64,0.063,0.93,0.188s0.542,0.293,0.757,0.503
					c0.215,0.21,0.388,0.46,0.518,0.75S257.592,40.775,257.592,41.105z M257.082,45.591v15.39h-3.72v-15.39H257.082z"/>
				<path fill="#FFFFFF" d="M260.502,47.735c1.77-1.62,3.9-2.43,6.39-2.43c0.9,0,1.705,0.147,2.415,0.442s1.31,0.705,1.8,1.229
					c0.49,0.525,0.862,1.153,1.117,1.883c0.255,0.73,0.383,1.53,0.383,2.4v9.72h-1.68c-0.35,0-0.62-0.053-0.81-0.157
					c-0.19-0.105-0.34-0.317-0.45-0.638l-0.33-1.11c-0.39,0.351-0.771,0.658-1.14,0.923c-0.37,0.265-0.755,0.487-1.155,0.667
					c-0.4,0.181-0.827,0.317-1.282,0.413c-0.455,0.095-0.958,0.143-1.507,0.143c-0.65,0-1.25-0.088-1.8-0.263
					s-1.025-0.438-1.425-0.787c-0.4-0.351-0.71-0.785-0.93-1.306c-0.22-0.52-0.33-1.125-0.33-1.814c0-0.391,0.065-0.777,0.195-1.163
					c0.13-0.385,0.342-0.752,0.637-1.103c0.295-0.35,0.677-0.68,1.147-0.989c0.47-0.311,1.047-0.58,1.732-0.811
					c0.685-0.229,1.482-0.417,2.393-0.563c0.91-0.145,1.95-0.232,3.12-0.263v-0.899c0-1.03-0.22-1.793-0.66-2.288
					s-1.075-0.742-1.905-0.742c-0.6,0-1.098,0.07-1.493,0.21c-0.395,0.141-0.742,0.298-1.042,0.473
					c-0.3,0.175-0.572,0.332-0.817,0.473c-0.245,0.14-0.518,0.21-0.817,0.21c-0.26,0-0.48-0.067-0.66-0.203
					c-0.18-0.135-0.325-0.292-0.435-0.472L260.502,47.735z M268.992,54.41c-1.07,0.051-1.97,0.143-2.7,0.277
					c-0.73,0.136-1.315,0.308-1.755,0.518s-0.755,0.455-0.945,0.735s-0.285,0.585-0.285,0.915c0,0.65,0.192,1.115,0.578,1.395
					c0.385,0.28,0.887,0.421,1.507,0.421c0.76,0,1.417-0.138,1.973-0.413c0.555-0.274,1.097-0.692,1.627-1.252V54.41z"/>
				<path fill="#FFFFFF" d="M279.552,47.48c0.31-0.31,0.638-0.598,0.982-0.862c0.345-0.265,0.71-0.49,1.095-0.675
					c0.385-0.186,0.797-0.33,1.237-0.436c0.44-0.104,0.919-0.157,1.44-0.157c0.841,0,1.585,0.143,2.235,0.428
					c0.65,0.284,1.192,0.685,1.627,1.199c0.436,0.516,0.766,1.131,0.99,1.846s0.338,1.502,0.338,2.362v9.795h-3.705v-9.795
					c0-0.939-0.215-1.667-0.645-2.183c-0.431-0.515-1.086-0.772-1.966-0.772c-0.64,0-1.24,0.146-1.8,0.435
					c-0.56,0.291-1.09,0.686-1.59,1.186v11.13h-3.705v-15.39h2.265c0.48,0,0.795,0.225,0.945,0.675L279.552,47.48z"/>
				<path fill="#FFFFFF" d="M297.927,61.221c-1.34,0-2.367-0.378-3.082-1.133s-1.072-1.797-1.072-3.127v-8.596h-1.576
					c-0.199,0-0.369-0.064-0.51-0.194c-0.14-0.13-0.21-0.325-0.21-0.585v-1.471l2.476-0.404l0.779-4.2
					c0.051-0.2,0.145-0.355,0.285-0.465c0.141-0.11,0.32-0.165,0.54-0.165h1.92v4.845h4.11v2.64h-4.11v8.34
					c0,0.48,0.118,0.855,0.353,1.125c0.234,0.271,0.558,0.405,0.968,0.405c0.229,0,0.423-0.027,0.577-0.082
					c0.155-0.056,0.29-0.113,0.405-0.173c0.114-0.06,0.218-0.117,0.308-0.173c0.09-0.055,0.18-0.082,0.27-0.082
					c0.11,0,0.2,0.027,0.271,0.082c0.069,0.056,0.145,0.138,0.225,0.248l1.11,1.8c-0.54,0.45-1.16,0.79-1.86,1.02
					C299.401,61.105,298.677,61.221,297.927,61.221z"/>
				<path fill="#FFFFFF" d="M306.687,53.75c0.061,0.791,0.2,1.473,0.42,2.048c0.221,0.575,0.51,1.05,0.871,1.425
					c0.359,0.375,0.787,0.655,1.281,0.84c0.496,0.186,1.043,0.278,1.643,0.278c0.601,0,1.118-0.07,1.553-0.21
					c0.436-0.141,0.814-0.295,1.141-0.466c0.324-0.17,0.609-0.324,0.854-0.465c0.245-0.14,0.482-0.21,0.712-0.21
					c0.311,0,0.541,0.115,0.691,0.346l1.064,1.35c-0.41,0.479-0.87,0.883-1.381,1.207c-0.51,0.325-1.042,0.585-1.597,0.78
					c-0.556,0.195-1.12,0.332-1.695,0.413c-0.575,0.079-1.132,0.119-1.673,0.119c-1.07,0-2.064-0.178-2.984-0.532
					s-1.721-0.88-2.4-1.575c-0.68-0.694-1.215-1.555-1.604-2.58c-0.39-1.024-0.585-2.212-0.585-3.563c0-1.05,0.17-2.037,0.51-2.962
					s0.827-1.73,1.463-2.415c0.635-0.685,1.41-1.228,2.324-1.628c0.916-0.399,1.947-0.6,3.098-0.6c0.971,0,1.865,0.155,2.686,0.465
					c0.819,0.311,1.524,0.763,2.115,1.357c0.59,0.595,1.052,1.325,1.387,2.19s0.503,1.853,0.503,2.962
					c0,0.561-0.06,0.938-0.181,1.133c-0.119,0.195-0.35,0.292-0.689,0.292H306.687z M313.752,51.516c0-0.48-0.067-0.933-0.202-1.357
					s-0.338-0.798-0.607-1.118c-0.271-0.319-0.613-0.572-1.027-0.757c-0.416-0.186-0.898-0.277-1.448-0.277
					c-1.07,0-1.913,0.305-2.527,0.915c-0.615,0.609-1.008,1.475-1.178,2.595H313.752z"/>
				<path fill="#FFFFFF" d="M339.327,50.136c0,1.59-0.266,3.05-0.795,4.38c-0.531,1.33-1.275,2.475-2.235,3.435
					s-2.115,1.705-3.465,2.235c-1.351,0.53-2.851,0.795-4.5,0.795h-8.265V39.29h8.265c1.649,0,3.149,0.269,4.5,0.803
					c1.35,0.535,2.505,1.28,3.465,2.235s1.704,2.098,2.235,3.428C339.062,47.086,339.327,48.546,339.327,50.136z M335.187,50.136
					c0-1.19-0.157-2.258-0.473-3.203c-0.314-0.944-0.77-1.744-1.365-2.399c-0.594-0.655-1.314-1.157-2.159-1.508
					c-0.845-0.35-1.798-0.525-2.857-0.525h-4.216v15.271h4.216c1.06,0,2.013-0.175,2.857-0.525c0.845-0.35,1.565-0.853,2.159-1.507
					c0.596-0.655,1.051-1.455,1.365-2.4C335.029,52.393,335.187,51.325,335.187,50.136z"/>
				<path fill="#FFFFFF" d="M344.952,53.75c0.061,0.791,0.2,1.473,0.42,2.048c0.221,0.575,0.51,1.05,0.871,1.425
					c0.359,0.375,0.787,0.655,1.281,0.84c0.496,0.186,1.043,0.278,1.643,0.278c0.601,0,1.118-0.07,1.553-0.21
					c0.436-0.141,0.814-0.295,1.141-0.466c0.324-0.17,0.609-0.324,0.854-0.465c0.245-0.14,0.482-0.21,0.712-0.21
					c0.311,0,0.541,0.115,0.691,0.346l1.064,1.35c-0.41,0.479-0.87,0.883-1.381,1.207c-0.51,0.325-1.042,0.585-1.597,0.78
					c-0.556,0.195-1.12,0.332-1.695,0.413c-0.575,0.079-1.132,0.119-1.673,0.119c-1.07,0-2.064-0.178-2.984-0.532
					s-1.721-0.88-2.4-1.575c-0.68-0.694-1.215-1.555-1.604-2.58c-0.39-1.024-0.585-2.212-0.585-3.563c0-1.05,0.17-2.037,0.51-2.962
					s0.827-1.73,1.463-2.415c0.635-0.685,1.41-1.228,2.324-1.628c0.916-0.399,1.947-0.6,3.098-0.6c0.971,0,1.865,0.155,2.686,0.465
					c0.819,0.311,1.524,0.763,2.115,1.357c0.59,0.595,1.052,1.325,1.387,2.19s0.503,1.853,0.503,2.962
					c0,0.561-0.06,0.938-0.181,1.133c-0.119,0.195-0.35,0.292-0.689,0.292H344.952z M352.018,51.516c0-0.48-0.067-0.933-0.202-1.357
					s-0.338-0.798-0.607-1.118c-0.271-0.319-0.613-0.572-1.027-0.757c-0.416-0.186-0.898-0.277-1.448-0.277
					c-1.07,0-1.913,0.305-2.527,0.915c-0.615,0.609-1.008,1.475-1.178,2.595H352.018z"/>
				<path fill="#FFFFFF" d="M374.923,39.29l-8.76,21.69h-3.646l-8.761-21.69h3.24c0.35,0,0.635,0.086,0.855,0.256
					c0.22,0.17,0.385,0.39,0.494,0.659l5.115,13.23c0.17,0.43,0.333,0.902,0.488,1.417c0.154,0.516,0.303,1.053,0.442,1.613
					c0.12-0.561,0.249-1.098,0.39-1.613c0.141-0.515,0.295-0.987,0.465-1.417l5.086-13.23c0.079-0.229,0.236-0.439,0.472-0.63
					c0.235-0.189,0.522-0.285,0.862-0.285H374.923z"/>
				<path fill="#FFFFFF" d="M377.052,53.75c0.061,0.791,0.2,1.473,0.42,2.048c0.221,0.575,0.51,1.05,0.871,1.425
					c0.359,0.375,0.787,0.655,1.281,0.84c0.496,0.186,1.043,0.278,1.643,0.278c0.601,0,1.119-0.07,1.553-0.21
					c0.436-0.141,0.816-0.295,1.141-0.466c0.324-0.17,0.609-0.324,0.855-0.465c0.244-0.14,0.482-0.21,0.713-0.21
					c0.309,0,0.539,0.115,0.689,0.346l1.064,1.35c-0.41,0.479-0.869,0.883-1.379,1.207c-0.512,0.325-1.043,0.585-1.598,0.78
					s-1.121,0.332-1.695,0.413c-0.576,0.079-1.133,0.119-1.674,0.119c-1.07,0-2.064-0.178-2.984-0.532s-1.721-0.88-2.4-1.575
					c-0.68-0.694-1.215-1.555-1.604-2.58c-0.39-1.024-0.585-2.212-0.585-3.563c0-1.05,0.17-2.037,0.51-2.962s0.827-1.73,1.463-2.415
					c0.635-0.685,1.41-1.228,2.324-1.628c0.916-0.399,1.947-0.6,3.098-0.6c0.971,0,1.865,0.155,2.686,0.465
					c0.82,0.311,1.525,0.763,2.115,1.357s1.053,1.325,1.387,2.19c0.336,0.865,0.504,1.853,0.504,2.962
					c0,0.561-0.061,0.938-0.182,1.133c-0.119,0.195-0.35,0.292-0.689,0.292H377.052z M384.118,51.516
					c0-0.48-0.068-0.933-0.203-1.357s-0.338-0.798-0.607-1.118c-0.27-0.319-0.613-0.572-1.027-0.757
					c-0.416-0.186-0.898-0.277-1.448-0.277c-1.07,0-1.913,0.305-2.527,0.915c-0.615,0.609-1.008,1.475-1.178,2.595H384.118z"/>
				<path fill="#FFFFFF" d="M395.202,61.221c-1.34,0-2.367-0.378-3.082-1.133s-1.072-1.797-1.072-3.127v-8.596h-1.574
					c-0.201,0-0.371-0.064-0.512-0.194c-0.139-0.13-0.209-0.325-0.209-0.585v-1.471l2.475-0.404l0.779-4.2
					c0.051-0.2,0.146-0.355,0.285-0.465c0.141-0.11,0.32-0.165,0.541-0.165h1.92v4.845h4.109v2.64h-4.109v8.34
					c0,0.48,0.117,0.855,0.352,1.125c0.236,0.271,0.559,0.405,0.969,0.405c0.229,0,0.422-0.027,0.576-0.082
					c0.156-0.056,0.291-0.113,0.406-0.173s0.217-0.117,0.307-0.173c0.09-0.055,0.18-0.082,0.27-0.082
					c0.111,0,0.201,0.027,0.271,0.082c0.068,0.056,0.145,0.138,0.225,0.248l1.109,1.8c-0.539,0.45-1.16,0.79-1.859,1.02
					C396.677,61.105,395.952,61.221,395.202,61.221z"/>
				<path fill="#FFFFFF" d="M403.962,53.75c0.061,0.791,0.199,1.473,0.42,2.048s0.51,1.05,0.869,1.425
					c0.361,0.375,0.789,0.655,1.283,0.84c0.494,0.186,1.043,0.278,1.643,0.278s1.117-0.07,1.553-0.21
					c0.436-0.141,0.814-0.295,1.141-0.466c0.324-0.17,0.609-0.324,0.854-0.465c0.246-0.14,0.482-0.21,0.713-0.21
					c0.311,0,0.541,0.115,0.689,0.346l1.066,1.35c-0.41,0.479-0.871,0.883-1.381,1.207c-0.51,0.325-1.043,0.585-1.598,0.78
					s-1.119,0.332-1.695,0.413c-0.574,0.079-1.131,0.119-1.672,0.119c-1.07,0-2.064-0.178-2.984-0.532s-1.721-0.88-2.4-1.575
					c-0.68-0.694-1.215-1.555-1.605-2.58c-0.391-1.024-0.584-2.212-0.584-3.563c0-1.05,0.17-2.037,0.51-2.962
					s0.826-1.73,1.463-2.415c0.635-0.685,1.408-1.228,2.324-1.628c0.914-0.399,1.947-0.6,3.098-0.6c0.969,0,1.865,0.155,2.686,0.465
					c0.818,0.311,1.523,0.763,2.113,1.357c0.592,0.595,1.053,1.325,1.389,2.19c0.334,0.865,0.502,1.853,0.502,2.962
					c0,0.561-0.061,0.938-0.18,1.133s-0.35,0.292-0.689,0.292H403.962z M411.026,51.516c0-0.48-0.066-0.933-0.201-1.357
					c-0.137-0.425-0.338-0.798-0.609-1.118c-0.27-0.319-0.611-0.572-1.027-0.757c-0.414-0.186-0.896-0.277-1.447-0.277
					c-1.07,0-1.912,0.305-2.527,0.915c-0.615,0.609-1.008,1.475-1.178,2.595H411.026z"/>
				<path fill="#FFFFFF" d="M420.628,48.261c0.479-0.92,1.049-1.643,1.709-2.168c0.66-0.524,1.439-0.787,2.34-0.787
					c0.711,0,1.281,0.155,1.711,0.465l-0.24,2.775c-0.051,0.18-0.123,0.307-0.217,0.382c-0.096,0.075-0.223,0.112-0.383,0.112
					c-0.15,0-0.373-0.024-0.668-0.074s-0.582-0.075-0.863-0.075c-0.41,0-0.775,0.06-1.094,0.18c-0.32,0.12-0.607,0.293-0.863,0.518
					c-0.254,0.225-0.48,0.498-0.676,0.817c-0.193,0.32-0.377,0.686-0.547,1.095v9.48h-3.705v-15.39h2.176
					c0.379,0,0.645,0.067,0.795,0.202s0.25,0.378,0.299,0.728L420.628,48.261z"/>
				<path fill="#FFFFFF" d="M432.671,41.105c0,0.32-0.064,0.62-0.193,0.9c-0.131,0.279-0.303,0.524-0.518,0.734
					c-0.217,0.21-0.469,0.378-0.758,0.503c-0.291,0.125-0.6,0.188-0.93,0.188c-0.32,0-0.623-0.063-0.908-0.188
					s-0.533-0.293-0.742-0.503c-0.211-0.21-0.379-0.455-0.502-0.734c-0.127-0.28-0.188-0.58-0.188-0.9c0-0.33,0.061-0.64,0.188-0.93
					c0.123-0.29,0.291-0.54,0.502-0.75c0.209-0.21,0.457-0.378,0.742-0.503s0.588-0.188,0.908-0.188c0.33,0,0.639,0.063,0.93,0.188
					c0.289,0.125,0.541,0.293,0.758,0.503c0.215,0.21,0.387,0.46,0.518,0.75C432.606,40.466,432.671,40.775,432.671,41.105z
					 M432.161,45.591v15.39h-3.719v-15.39H432.161z"/>
				<path fill="#FFFFFF" d="M439.407,47.48c0.309-0.31,0.637-0.598,0.982-0.862c0.344-0.265,0.709-0.49,1.094-0.675
					c0.387-0.186,0.799-0.33,1.238-0.436c0.439-0.104,0.92-0.157,1.439-0.157c0.84,0,1.586,0.143,2.236,0.428
					c0.648,0.284,1.191,0.685,1.627,1.199c0.436,0.516,0.766,1.131,0.99,1.846s0.338,1.502,0.338,2.362v9.795h-3.705v-9.795
					c0-0.939-0.215-1.667-0.646-2.183c-0.43-0.515-1.084-0.772-1.965-0.772c-0.639,0-1.24,0.146-1.799,0.435
					c-0.561,0.291-1.09,0.686-1.59,1.186v11.13h-3.705v-15.39h2.264c0.48,0,0.795,0.225,0.945,0.675L439.407,47.48z"/>
				<path fill="#FFFFFF" d="M452.501,47.735c1.771-1.62,3.9-2.43,6.391-2.43c0.9,0,1.705,0.147,2.416,0.442
					c0.709,0.295,1.309,0.705,1.799,1.229c0.49,0.525,0.863,1.153,1.117,1.883c0.256,0.73,0.383,1.53,0.383,2.4v9.72h-1.68
					c-0.35,0-0.621-0.053-0.811-0.157c-0.189-0.105-0.34-0.317-0.449-0.638l-0.33-1.11c-0.391,0.351-0.77,0.658-1.141,0.923
					c-0.369,0.265-0.754,0.487-1.154,0.667c-0.4,0.181-0.828,0.317-1.283,0.413c-0.455,0.095-0.957,0.143-1.508,0.143
					c-0.648,0-1.25-0.088-1.799-0.263c-0.551-0.175-1.025-0.438-1.426-0.787c-0.4-0.351-0.709-0.785-0.93-1.306
					c-0.221-0.52-0.33-1.125-0.33-1.814c0-0.391,0.064-0.777,0.195-1.163c0.129-0.385,0.342-0.752,0.637-1.103
					c0.295-0.35,0.678-0.68,1.148-0.989c0.469-0.311,1.047-0.58,1.732-0.811c0.686-0.229,1.482-0.417,2.393-0.563
					c0.91-0.145,1.949-0.232,3.119-0.263v-0.899c0-1.03-0.219-1.793-0.66-2.288c-0.439-0.495-1.074-0.742-1.904-0.742
					c-0.6,0-1.098,0.07-1.492,0.21c-0.395,0.141-0.742,0.298-1.043,0.473s-0.572,0.332-0.816,0.473
					c-0.246,0.14-0.518,0.21-0.818,0.21c-0.26,0-0.48-0.067-0.66-0.203c-0.18-0.135-0.324-0.292-0.436-0.472L452.501,47.735z
					 M460.991,54.41c-1.07,0.051-1.969,0.143-2.699,0.277c-0.73,0.136-1.314,0.308-1.756,0.518c-0.439,0.21-0.754,0.455-0.945,0.735
					c-0.189,0.28-0.283,0.585-0.283,0.915c0,0.65,0.191,1.115,0.576,1.395c0.385,0.28,0.889,0.421,1.508,0.421
					c0.76,0,1.418-0.138,1.973-0.413c0.555-0.274,1.098-0.692,1.627-1.252V54.41z"/>
				<path fill="#FFFFFF" d="M471.581,48.261c0.48-0.92,1.051-1.643,1.711-2.168c0.66-0.524,1.439-0.787,2.34-0.787
					c0.709,0,1.279,0.155,1.709,0.465l-0.24,2.775c-0.049,0.18-0.121,0.307-0.217,0.382s-0.223,0.112-0.383,0.112
					c-0.15,0-0.373-0.024-0.668-0.074s-0.582-0.075-0.861-0.075c-0.41,0-0.775,0.06-1.096,0.18s-0.607,0.293-0.861,0.518
					c-0.256,0.225-0.48,0.498-0.676,0.817c-0.195,0.32-0.377,0.686-0.547,1.095v9.48h-3.705v-15.39h2.174
					c0.381,0,0.646,0.067,0.795,0.202c0.15,0.135,0.25,0.378,0.301,0.728L471.581,48.261z"/>
				<path fill="#FFFFFF" d="M483.626,41.105c0,0.32-0.064,0.62-0.195,0.9c-0.131,0.279-0.303,0.524-0.518,0.734
					s-0.467,0.378-0.758,0.503c-0.289,0.125-0.6,0.188-0.93,0.188c-0.32,0-0.623-0.063-0.908-0.188
					c-0.283-0.125-0.531-0.293-0.742-0.503c-0.209-0.21-0.377-0.455-0.502-0.734c-0.125-0.28-0.188-0.58-0.188-0.9
					c0-0.33,0.063-0.64,0.188-0.93s0.293-0.54,0.502-0.75c0.211-0.21,0.459-0.378,0.742-0.503c0.285-0.125,0.588-0.188,0.908-0.188
					c0.33,0,0.641,0.063,0.93,0.188c0.291,0.125,0.543,0.293,0.758,0.503s0.387,0.46,0.518,0.75S483.626,40.775,483.626,41.105z
					 M483.116,45.591v15.39h-3.721v-15.39H483.116z"/>
				<path fill="#FFFFFF" d="M486.536,47.735c1.77-1.62,3.9-2.43,6.391-2.43c0.898,0,1.703,0.147,2.414,0.442
					s1.311,0.705,1.801,1.229c0.488,0.525,0.861,1.153,1.117,1.883c0.254,0.73,0.383,1.53,0.383,2.4v9.72h-1.682
					c-0.35,0-0.619-0.053-0.809-0.157c-0.191-0.105-0.34-0.317-0.451-0.638l-0.33-1.11c-0.389,0.351-0.77,0.658-1.139,0.923
					c-0.371,0.265-0.756,0.487-1.156,0.667c-0.398,0.181-0.826,0.317-1.281,0.413c-0.455,0.095-0.959,0.143-1.508,0.143
					c-0.65,0-1.25-0.088-1.801-0.263c-0.549-0.175-1.025-0.438-1.424-0.787c-0.4-0.351-0.711-0.785-0.93-1.306
					c-0.221-0.52-0.33-1.125-0.33-1.814c0-0.391,0.064-0.777,0.193-1.163c0.131-0.385,0.344-0.752,0.639-1.103
					c0.295-0.35,0.678-0.68,1.146-0.989c0.471-0.311,1.049-0.58,1.732-0.811c0.686-0.229,1.482-0.417,2.393-0.563
					c0.91-0.145,1.951-0.232,3.121-0.263v-0.899c0-1.03-0.221-1.793-0.66-2.288c-0.441-0.495-1.076-0.742-1.906-0.742
					c-0.6,0-1.096,0.07-1.492,0.21c-0.395,0.141-0.742,0.298-1.041,0.473c-0.301,0.175-0.574,0.332-0.818,0.473
					c-0.246,0.14-0.518,0.21-0.818,0.21c-0.26,0-0.479-0.067-0.658-0.203c-0.182-0.135-0.326-0.292-0.436-0.472L486.536,47.735z
					 M495.026,54.41c-1.07,0.051-1.971,0.143-2.701,0.277c-0.729,0.136-1.314,0.308-1.754,0.518
					c-0.441,0.21-0.756,0.455-0.945,0.735s-0.285,0.585-0.285,0.915c0,0.65,0.193,1.115,0.578,1.395
					c0.385,0.28,0.887,0.421,1.508,0.421c0.76,0,1.416-0.138,1.971-0.413c0.557-0.274,1.098-0.692,1.629-1.252V54.41z"/>
			</g>
		</g>
		<g>
			<g>
				<path fill="#FFFFFF" d="M46.917,280.472c1.77-1.62,3.9-2.43,6.39-2.43c0.9,0,1.705,0.147,2.415,0.442s1.31,0.705,1.8,1.229
					c0.49,0.525,0.862,1.153,1.117,1.883c0.255,0.73,0.383,1.53,0.383,2.4v9.72h-1.68c-0.35,0-0.62-0.053-0.81-0.157
					c-0.19-0.105-0.34-0.317-0.45-0.638l-0.33-1.11c-0.39,0.351-0.771,0.658-1.14,0.923c-0.37,0.265-0.755,0.487-1.155,0.667
					c-0.4,0.181-0.827,0.317-1.282,0.413c-0.455,0.095-0.958,0.143-1.507,0.143c-0.65,0-1.25-0.088-1.8-0.263
					s-1.025-0.438-1.425-0.787c-0.4-0.351-0.71-0.785-0.93-1.306c-0.22-0.52-0.33-1.125-0.33-1.814c0-0.391,0.065-0.777,0.195-1.163
					c0.13-0.385,0.342-0.752,0.637-1.103c0.295-0.35,0.677-0.68,1.147-0.989c0.47-0.311,1.047-0.58,1.732-0.811
					c0.685-0.229,1.482-0.417,2.393-0.563c0.91-0.145,1.95-0.232,3.12-0.263v-0.899c0-1.03-0.22-1.793-0.66-2.288
					s-1.075-0.742-1.905-0.742c-0.6,0-1.098,0.07-1.493,0.21c-0.395,0.141-0.742,0.298-1.042,0.473
					c-0.3,0.175-0.572,0.332-0.817,0.473c-0.245,0.14-0.518,0.21-0.817,0.21c-0.26,0-0.48-0.067-0.66-0.203
					c-0.18-0.135-0.325-0.292-0.435-0.472L46.917,280.472z M55.406,287.146c-1.07,0.051-1.97,0.143-2.7,0.277
					c-0.73,0.136-1.315,0.308-1.755,0.518s-0.755,0.455-0.945,0.735s-0.285,0.585-0.285,0.915c0,0.65,0.192,1.115,0.578,1.395
					c0.385,0.28,0.887,0.421,1.507,0.421c0.76,0,1.417-0.138,1.973-0.413c0.555-0.274,1.097-0.692,1.627-1.252V287.146z"/>
				<path fill="#FFFFFF" d="M66.251,271.427v22.29h-3.705v-22.29H66.251z"/>
				<path fill="#FFFFFF" d="M74.306,273.842c0,0.32-0.065,0.62-0.195,0.9c-0.13,0.279-0.302,0.524-0.518,0.734
					c-0.215,0.21-0.467,0.378-0.757,0.503s-0.6,0.188-0.93,0.188c-0.32,0-0.622-0.063-0.907-0.188s-0.533-0.293-0.743-0.503
					s-0.377-0.455-0.502-0.734c-0.125-0.28-0.188-0.58-0.188-0.9c0-0.33,0.063-0.64,0.188-0.93s0.292-0.54,0.502-0.75
					s0.458-0.378,0.743-0.503s0.587-0.188,0.907-0.188c0.33,0,0.64,0.063,0.93,0.188s0.542,0.293,0.757,0.503
					c0.215,0.21,0.388,0.46,0.518,0.75S74.306,273.512,74.306,273.842z M73.795,278.327v15.39h-3.72v-15.39H73.795z"/>
				<path fill="#FFFFFF" d="M77.576,293.717v-15.39h2.265c0.48,0,0.795,0.225,0.945,0.675l0.24,1.14
					c0.27-0.3,0.553-0.575,0.848-0.825c0.295-0.249,0.61-0.465,0.945-0.645s0.695-0.322,1.08-0.428
					c0.385-0.104,0.808-0.157,1.268-0.157c0.97,0,1.768,0.263,2.393,0.787c0.625,0.525,1.092,1.223,1.402,2.093
					c0.24-0.51,0.54-0.947,0.9-1.313c0.36-0.365,0.755-0.662,1.185-0.893c0.43-0.229,0.888-0.399,1.373-0.51
					s0.973-0.165,1.462-0.165c0.85,0,1.605,0.13,2.265,0.39c0.66,0.261,1.215,0.641,1.665,1.141c0.45,0.5,0.792,1.109,1.027,1.83
					c0.235,0.72,0.353,1.545,0.353,2.475v9.795h-3.705v-9.795c0-0.98-0.215-1.718-0.645-2.213c-0.43-0.495-1.06-0.742-1.89-0.742
					c-0.38,0-0.733,0.065-1.058,0.195c-0.325,0.13-0.61,0.317-0.855,0.563s-0.438,0.553-0.578,0.922
					c-0.14,0.37-0.21,0.795-0.21,1.275v9.795h-3.72v-9.795c0-1.03-0.208-1.78-0.623-2.25c-0.415-0.47-1.022-0.705-1.823-0.705
					c-0.54,0-1.042,0.133-1.507,0.397s-0.897,0.628-1.297,1.088v11.265H77.576z"/>
				<path fill="#FFFFFF" d="M105.551,286.486c0.06,0.791,0.2,1.473,0.42,2.048c0.22,0.575,0.51,1.05,0.87,1.425
					c0.36,0.375,0.787,0.655,1.282,0.84c0.495,0.186,1.042,0.278,1.643,0.278s1.118-0.07,1.552-0.21
					c0.435-0.141,0.815-0.295,1.14-0.466c0.325-0.17,0.61-0.324,0.855-0.465c0.245-0.14,0.482-0.21,0.712-0.21
					c0.31,0,0.54,0.115,0.69,0.346l1.065,1.35c-0.41,0.479-0.87,0.883-1.38,1.207c-0.51,0.325-1.042,0.585-1.597,0.78
					c-0.555,0.195-1.12,0.332-1.695,0.413c-0.575,0.079-1.132,0.119-1.672,0.119c-1.07,0-2.065-0.178-2.985-0.532
					c-0.92-0.354-1.72-0.88-2.4-1.575c-0.68-0.694-1.215-1.555-1.605-2.58c-0.39-1.024-0.585-2.212-0.585-3.563
					c0-1.05,0.17-2.037,0.51-2.962s0.827-1.73,1.462-2.415s1.41-1.228,2.325-1.628c0.915-0.399,1.947-0.6,3.097-0.6
					c0.97,0,1.865,0.155,2.685,0.465c0.82,0.311,1.525,0.763,2.115,1.357c0.59,0.595,1.052,1.325,1.387,2.19
					s0.503,1.853,0.503,2.962c0,0.561-0.06,0.938-0.18,1.133s-0.35,0.292-0.69,0.292H105.551z M112.616,284.252
					c0-0.48-0.067-0.933-0.203-1.357c-0.135-0.425-0.337-0.798-0.607-1.118c-0.27-0.319-0.613-0.572-1.027-0.757
					c-0.416-0.186-0.898-0.277-1.448-0.277c-1.07,0-1.913,0.305-2.527,0.915c-0.615,0.609-1.008,1.475-1.178,2.595H112.616z"/>
				<path fill="#FFFFFF" d="M122.186,280.217c0.31-0.31,0.638-0.598,0.982-0.862c0.345-0.265,0.71-0.49,1.095-0.675
					c0.385-0.186,0.797-0.33,1.237-0.436c0.44-0.104,0.92-0.157,1.44-0.157c0.84,0,1.585,0.143,2.235,0.428
					c0.65,0.284,1.192,0.685,1.627,1.199c0.435,0.516,0.765,1.131,0.99,1.846c0.225,0.715,0.338,1.502,0.338,2.362v9.795h-3.705
					v-9.795c0-0.939-0.215-1.667-0.645-2.183c-0.43-0.515-1.085-0.772-1.965-0.772c-0.64,0-1.24,0.146-1.8,0.435
					c-0.56,0.291-1.09,0.686-1.59,1.186v11.13h-3.705v-15.39h2.265c0.48,0,0.795,0.225,0.945,0.675L122.186,280.217z"/>
				<path fill="#FFFFFF" d="M140.561,293.957c-1.34,0-2.368-0.378-3.083-1.133s-1.072-1.797-1.072-3.127v-8.596h-1.575
					c-0.2,0-0.37-0.064-0.51-0.194c-0.14-0.13-0.21-0.325-0.21-0.585v-1.471l2.475-0.404l0.78-4.2c0.05-0.2,0.145-0.355,0.285-0.465
					c0.14-0.11,0.32-0.165,0.54-0.165h1.92v4.845h4.11v2.64h-4.11v8.34c0,0.48,0.118,0.855,0.353,1.125
					c0.235,0.271,0.558,0.405,0.968,0.405c0.23,0,0.422-0.027,0.578-0.082c0.155-0.056,0.29-0.113,0.405-0.173
					c0.115-0.06,0.217-0.117,0.308-0.173c0.09-0.055,0.18-0.082,0.27-0.082c0.11,0,0.2,0.027,0.27,0.082
					c0.07,0.056,0.145,0.138,0.225,0.248l1.11,1.8c-0.54,0.45-1.16,0.79-1.86,1.02C142.036,293.842,141.311,293.957,140.561,293.957
					z"/>
				<path fill="#FFFFFF" d="M146.23,280.472c1.77-1.62,3.9-2.43,6.39-2.43c0.9,0,1.705,0.147,2.415,0.442s1.31,0.705,1.8,1.229
					c0.49,0.525,0.862,1.153,1.117,1.883c0.255,0.73,0.383,1.53,0.383,2.4v9.72h-1.68c-0.35,0-0.62-0.053-0.81-0.157
					c-0.19-0.105-0.34-0.317-0.45-0.638l-0.33-1.11c-0.39,0.351-0.771,0.658-1.14,0.923c-0.37,0.265-0.755,0.487-1.155,0.667
					c-0.4,0.181-0.827,0.317-1.282,0.413c-0.455,0.095-0.958,0.143-1.507,0.143c-0.65,0-1.25-0.088-1.8-0.263
					s-1.025-0.438-1.425-0.787c-0.4-0.351-0.71-0.785-0.93-1.306c-0.22-0.52-0.33-1.125-0.33-1.814c0-0.391,0.065-0.777,0.195-1.163
					c0.13-0.385,0.342-0.752,0.637-1.103c0.295-0.35,0.677-0.68,1.147-0.989c0.47-0.311,1.047-0.58,1.732-0.811
					c0.685-0.229,1.482-0.417,2.393-0.563c0.91-0.145,1.95-0.232,3.12-0.263v-0.899c0-1.03-0.22-1.793-0.66-2.288
					s-1.075-0.742-1.905-0.742c-0.6,0-1.098,0.07-1.493,0.21c-0.395,0.141-0.742,0.298-1.042,0.473
					c-0.3,0.175-0.572,0.332-0.817,0.473c-0.245,0.14-0.518,0.21-0.817,0.21c-0.26,0-0.48-0.067-0.66-0.203
					c-0.18-0.135-0.325-0.292-0.435-0.472L146.23,280.472z M154.72,287.146c-1.07,0.051-1.97,0.143-2.7,0.277
					c-0.73,0.136-1.315,0.308-1.755,0.518s-0.755,0.455-0.945,0.735s-0.285,0.585-0.285,0.915c0,0.65,0.192,1.115,0.578,1.395
					c0.385,0.28,0.887,0.421,1.507,0.421c0.76,0,1.417-0.138,1.973-0.413c0.555-0.274,1.097-0.692,1.627-1.252V287.146z"/>
				<path fill="#FFFFFF" d="M165.311,280.997c0.48-0.92,1.05-1.643,1.71-2.168c0.66-0.524,1.44-0.787,2.34-0.787
					c0.71,0,1.28,0.155,1.71,0.465l-0.24,2.775c-0.05,0.18-0.123,0.307-0.218,0.382s-0.223,0.112-0.382,0.112
					c-0.15,0-0.373-0.024-0.667-0.074c-0.295-0.05-0.583-0.075-0.863-0.075c-0.41,0-0.775,0.06-1.095,0.18
					c-0.32,0.12-0.607,0.293-0.863,0.518c-0.255,0.225-0.48,0.498-0.675,0.817c-0.195,0.32-0.377,0.686-0.547,1.095v9.48h-3.705
					v-15.39h2.175c0.38,0,0.645,0.067,0.795,0.202c0.15,0.135,0.25,0.378,0.3,0.728L165.311,280.997z"/>
				<path fill="#FFFFFF" d="M175.48,284.312c0,2.061,0.25,4.085,0.75,6.075c0.5,1.99,1.215,3.86,2.145,5.61
					c0.1,0.199,0.157,0.377,0.172,0.532s0.002,0.29-0.038,0.405c-0.04,0.114-0.103,0.215-0.188,0.3s-0.178,0.157-0.277,0.218
					l-1.65,1.005c-0.74-1.141-1.371-2.285-1.89-3.436c-0.52-1.149-0.945-2.31-1.275-3.479c-0.33-1.17-0.573-2.355-0.728-3.556
					c-0.155-1.199-0.232-2.425-0.232-3.675s0.077-2.478,0.232-3.683c0.155-1.204,0.397-2.393,0.728-3.563
					c0.33-1.17,0.755-2.327,1.275-3.472c0.52-1.146,1.15-2.288,1.89-3.428l1.65,0.99c0.1,0.06,0.192,0.132,0.277,0.217
					s0.147,0.186,0.188,0.3c0.04,0.115,0.053,0.251,0.038,0.405c-0.015,0.155-0.073,0.338-0.172,0.548
					c-0.93,1.74-1.646,3.607-2.145,5.603C175.729,280.225,175.48,282.252,175.48,284.312z"/>
				<path fill="#FFFFFF" d="M190.09,281.327c-0.1,0.16-0.205,0.272-0.315,0.337c-0.11,0.065-0.25,0.098-0.42,0.098
					c-0.18,0-0.373-0.05-0.577-0.15c-0.205-0.1-0.443-0.212-0.713-0.337s-0.577-0.237-0.922-0.338
					c-0.345-0.1-0.752-0.149-1.223-0.149c-0.73,0-1.302,0.155-1.717,0.465s-0.623,0.715-0.623,1.215c0,0.33,0.107,0.607,0.323,0.832
					c0.215,0.226,0.5,0.423,0.855,0.593c0.354,0.17,0.757,0.322,1.208,0.458c0.45,0.135,0.907,0.282,1.372,0.442
					c0.465,0.16,0.923,0.343,1.373,0.547c0.45,0.205,0.853,0.466,1.208,0.78c0.355,0.315,0.64,0.692,0.855,1.133
					s0.323,0.97,0.323,1.59c0,0.74-0.133,1.423-0.397,2.048c-0.265,0.625-0.658,1.165-1.178,1.62s-1.163,0.81-1.927,1.064
					c-0.765,0.255-1.648,0.383-2.647,0.383c-0.53,0-1.048-0.048-1.553-0.143c-0.505-0.096-0.99-0.228-1.455-0.397
					c-0.465-0.17-0.895-0.37-1.29-0.601c-0.395-0.229-0.742-0.479-1.042-0.75l0.855-1.409c0.11-0.17,0.24-0.301,0.39-0.391
					s0.34-0.135,0.57-0.135s0.448,0.065,0.653,0.195c0.205,0.13,0.442,0.27,0.712,0.42c0.27,0.149,0.587,0.29,0.953,0.42
					c0.365,0.13,0.827,0.194,1.387,0.194c0.44,0,0.817-0.052,1.133-0.157c0.315-0.104,0.575-0.242,0.78-0.412
					s0.355-0.368,0.45-0.593c0.095-0.225,0.142-0.457,0.142-0.697c0-0.36-0.107-0.655-0.322-0.885
					c-0.215-0.23-0.5-0.431-0.855-0.601s-0.76-0.322-1.215-0.457c-0.456-0.136-0.92-0.282-1.395-0.442
					c-0.475-0.16-0.94-0.348-1.395-0.563c-0.455-0.215-0.86-0.488-1.215-0.818c-0.355-0.329-0.64-0.734-0.855-1.215
					c-0.215-0.479-0.322-1.06-0.322-1.739c0-0.631,0.125-1.23,0.375-1.801c0.25-0.569,0.617-1.067,1.103-1.492
					c0.485-0.425,1.09-0.765,1.815-1.02c0.725-0.256,1.563-0.383,2.513-0.383c1.06,0,2.025,0.175,2.895,0.524
					c0.87,0.351,1.595,0.811,2.175,1.381L190.09,281.327z"/>
				<path fill="#FFFFFF" d="M196.735,286.486c0.06,0.791,0.2,1.473,0.42,2.048c0.22,0.575,0.51,1.05,0.87,1.425
					c0.36,0.375,0.787,0.655,1.282,0.84c0.495,0.186,1.042,0.278,1.643,0.278s1.118-0.07,1.552-0.21
					c0.435-0.141,0.815-0.295,1.14-0.466c0.325-0.17,0.61-0.324,0.855-0.465c0.245-0.14,0.482-0.21,0.712-0.21
					c0.31,0,0.54,0.115,0.69,0.346l1.065,1.35c-0.41,0.479-0.87,0.883-1.38,1.207c-0.51,0.325-1.042,0.585-1.597,0.78
					c-0.555,0.195-1.12,0.332-1.695,0.413c-0.575,0.079-1.132,0.119-1.672,0.119c-1.07,0-2.065-0.178-2.985-0.532
					c-0.92-0.354-1.72-0.88-2.4-1.575c-0.68-0.694-1.215-1.555-1.605-2.58c-0.39-1.024-0.585-2.212-0.585-3.563
					c0-1.05,0.17-2.037,0.51-2.962s0.827-1.73,1.462-2.415s1.41-1.228,2.325-1.628c0.915-0.399,1.947-0.6,3.097-0.6
					c0.97,0,1.865,0.155,2.685,0.465c0.82,0.311,1.525,0.763,2.115,1.357c0.59,0.595,1.052,1.325,1.387,2.19
					s0.503,1.853,0.503,2.962c0,0.561-0.06,0.938-0.18,1.133s-0.35,0.292-0.69,0.292H196.735z M203.8,284.252
					c0-0.48-0.067-0.933-0.203-1.357c-0.135-0.425-0.337-0.798-0.607-1.118c-0.27-0.319-0.613-0.572-1.027-0.757
					c-0.416-0.186-0.898-0.277-1.448-0.277c-1.07,0-1.913,0.305-2.527,0.915c-0.615,0.609-1.008,1.475-1.178,2.595H203.8z"/>
				<path fill="#FFFFFF" d="M213.655,271.427v22.29h-3.705v-22.29H213.655z"/>
				<path fill="#FFFFFF" d="M218.439,293.717v-12.6l-1.335-0.21c-0.291-0.061-0.523-0.163-0.698-0.308
					c-0.175-0.146-0.262-0.353-0.262-0.623v-1.515h2.295v-1.14c0-0.88,0.132-1.67,0.397-2.37c0.265-0.7,0.645-1.295,1.14-1.785
					c0.495-0.49,1.098-0.865,1.808-1.125s1.51-0.391,2.4-0.391c0.71,0,1.37,0.096,1.98,0.285l-0.075,1.86
					c-0.01,0.14-0.05,0.253-0.12,0.338s-0.163,0.149-0.277,0.194c-0.115,0.045-0.248,0.075-0.397,0.09
					c-0.15,0.016-0.31,0.022-0.48,0.022c-0.44,0-0.833,0.048-1.178,0.143c-0.345,0.096-0.637,0.261-0.877,0.495
					c-0.24,0.235-0.422,0.545-0.547,0.931c-0.125,0.385-0.188,0.862-0.188,1.432v1.021h4.005v2.64h-3.885v12.615H218.439z"/>
				<path fill="#FFFFFF" d="M227.395,297.392c-0.18-0.149-0.27-0.335-0.27-0.555c0-0.08,0.027-0.17,0.083-0.271
					c0.055-0.1,0.123-0.189,0.203-0.27c0.11-0.12,0.245-0.268,0.405-0.442c0.16-0.175,0.32-0.375,0.48-0.601
					c0.16-0.225,0.308-0.47,0.442-0.734c0.135-0.266,0.238-0.548,0.308-0.848c-0.32,0-0.61-0.058-0.87-0.173
					c-0.26-0.114-0.482-0.272-0.667-0.473c-0.185-0.199-0.33-0.435-0.435-0.704c-0.105-0.271-0.157-0.565-0.157-0.886
					c0-0.279,0.052-0.542,0.157-0.787c0.105-0.245,0.252-0.46,0.443-0.646c0.19-0.185,0.42-0.33,0.69-0.435
					c0.27-0.105,0.565-0.157,0.885-0.157c0.38,0,0.713,0.067,0.998,0.202c0.285,0.135,0.52,0.32,0.705,0.555
					c0.185,0.235,0.325,0.506,0.42,0.811s0.143,0.628,0.143,0.968c0,0.479-0.073,0.984-0.217,1.515
					c-0.146,0.53-0.358,1.06-0.638,1.59c-0.28,0.53-0.627,1.045-1.042,1.545s-0.888,0.96-1.417,1.38L227.395,297.392z"/>
				<path fill="#FFFFFF" d="M241.404,280.472c1.77-1.62,3.9-2.43,6.39-2.43c0.9,0,1.705,0.147,2.415,0.442s1.31,0.705,1.8,1.229
					c0.49,0.525,0.863,1.153,1.117,1.883c0.256,0.73,0.383,1.53,0.383,2.4v9.72h-1.68c-0.35,0-0.62-0.053-0.81-0.157
					c-0.19-0.105-0.34-0.317-0.45-0.638l-0.33-1.11c-0.39,0.351-0.771,0.658-1.14,0.923c-0.37,0.265-0.755,0.487-1.155,0.667
					c-0.4,0.181-0.827,0.317-1.282,0.413c-0.455,0.095-0.958,0.143-1.507,0.143c-0.65,0-1.25-0.088-1.8-0.263
					s-1.025-0.438-1.425-0.787c-0.4-0.351-0.71-0.785-0.93-1.306c-0.22-0.52-0.33-1.125-0.33-1.814c0-0.391,0.065-0.777,0.195-1.163
					c0.13-0.385,0.342-0.752,0.637-1.103c0.295-0.35,0.677-0.68,1.147-0.989c0.47-0.311,1.047-0.58,1.732-0.811
					c0.685-0.229,1.482-0.417,2.393-0.563c0.91-0.145,1.95-0.232,3.12-0.263v-0.899c0-1.03-0.22-1.793-0.66-2.288
					s-1.075-0.742-1.905-0.742c-0.6,0-1.098,0.07-1.493,0.21c-0.395,0.141-0.742,0.298-1.042,0.473
					c-0.3,0.175-0.572,0.332-0.817,0.473c-0.245,0.14-0.518,0.21-0.817,0.21c-0.26,0-0.48-0.067-0.66-0.203
					c-0.18-0.135-0.325-0.292-0.435-0.472L241.404,280.472z M249.894,287.146c-1.07,0.051-1.97,0.143-2.7,0.277
					c-0.73,0.136-1.315,0.308-1.755,0.518s-0.755,0.455-0.945,0.735s-0.285,0.585-0.285,0.915c0,0.65,0.192,1.115,0.578,1.395
					c0.385,0.28,0.887,0.421,1.507,0.421c0.76,0,1.417-0.138,1.973-0.413c0.555-0.274,1.097-0.692,1.627-1.252V287.146z"/>
				<path fill="#FFFFFF" d="M260.454,280.217c0.31-0.31,0.638-0.598,0.982-0.862s0.71-0.49,1.095-0.675
					c0.386-0.186,0.798-0.33,1.238-0.436c0.439-0.104,0.92-0.157,1.439-0.157c0.84,0,1.585,0.143,2.235,0.428
					c0.649,0.284,1.192,0.685,1.627,1.199c0.436,0.516,0.766,1.131,0.99,1.846c0.226,0.715,0.338,1.502,0.338,2.362v9.795h-3.705
					v-9.795c0-0.939-0.215-1.667-0.646-2.183c-0.43-0.515-1.085-0.772-1.965-0.772c-0.64,0-1.24,0.146-1.8,0.435
					c-0.561,0.291-1.09,0.686-1.59,1.186v11.13h-3.705v-15.39h2.265c0.48,0,0.795,0.225,0.945,0.675L260.454,280.217z"/>
				<path fill="#FFFFFF" d="M278.259,273.842c0,0.32-0.064,0.62-0.194,0.9c-0.131,0.279-0.303,0.524-0.518,0.734
					c-0.216,0.21-0.468,0.378-0.758,0.503s-0.6,0.188-0.93,0.188c-0.32,0-0.623-0.063-0.908-0.188
					c-0.284-0.125-0.532-0.293-0.742-0.503s-0.378-0.455-0.502-0.734c-0.126-0.28-0.188-0.58-0.188-0.9
					c0-0.33,0.062-0.64,0.188-0.93c0.124-0.29,0.292-0.54,0.502-0.75s0.458-0.378,0.742-0.503c0.285-0.125,0.588-0.188,0.908-0.188
					c0.33,0,0.64,0.063,0.93,0.188s0.542,0.293,0.758,0.503c0.215,0.21,0.387,0.46,0.518,0.75
					C278.194,273.202,278.259,273.512,278.259,273.842z M277.749,278.327v15.39h-3.72v-15.39H277.749z"/>
				<path fill="#FFFFFF" d="M281.528,293.717v-15.39h2.265c0.48,0,0.795,0.225,0.945,0.675l0.24,1.14
					c0.27-0.3,0.552-0.575,0.848-0.825c0.294-0.249,0.609-0.465,0.944-0.645s0.695-0.322,1.08-0.428
					c0.385-0.104,0.808-0.157,1.268-0.157c0.97,0,1.768,0.263,2.393,0.787c0.625,0.525,1.093,1.223,1.402,2.093
					c0.24-0.51,0.54-0.947,0.9-1.313c0.359-0.365,0.755-0.662,1.185-0.893c0.43-0.229,0.888-0.399,1.373-0.51
					c0.484-0.11,0.972-0.165,1.462-0.165c0.85,0,1.605,0.13,2.266,0.39c0.659,0.261,1.215,0.641,1.665,1.141
					c0.449,0.5,0.792,1.109,1.027,1.83c0.234,0.72,0.353,1.545,0.353,2.475v9.795h-3.705v-9.795c0-0.98-0.216-1.718-0.646-2.213
					s-1.06-0.742-1.89-0.742c-0.38,0-0.732,0.065-1.058,0.195s-0.61,0.317-0.854,0.563c-0.246,0.245-0.438,0.553-0.578,0.922
					c-0.14,0.37-0.21,0.795-0.21,1.275v9.795h-3.72v-9.795c0-1.03-0.208-1.78-0.623-2.25s-1.022-0.705-1.822-0.705
					c-0.54,0-1.042,0.133-1.508,0.397c-0.465,0.265-0.897,0.628-1.297,1.088v11.265H281.528z"/>
				<path fill="#FFFFFF" d="M306.293,280.472c1.771-1.62,3.9-2.43,6.391-2.43c0.899,0,1.704,0.147,2.415,0.442
					c0.71,0.295,1.31,0.705,1.8,1.229c0.489,0.525,0.862,1.153,1.117,1.883c0.255,0.73,0.383,1.53,0.383,2.4v9.72h-1.681
					c-0.35,0-0.62-0.053-0.81-0.157c-0.19-0.105-0.34-0.317-0.45-0.638l-0.33-1.11c-0.39,0.351-0.77,0.658-1.14,0.923
					s-0.755,0.487-1.155,0.667c-0.399,0.181-0.827,0.317-1.282,0.413c-0.455,0.095-0.958,0.143-1.508,0.143
					c-0.649,0-1.25-0.088-1.8-0.263s-1.025-0.438-1.425-0.787c-0.4-0.351-0.71-0.785-0.93-1.306c-0.221-0.52-0.33-1.125-0.33-1.814
					c0-0.391,0.064-0.777,0.194-1.163c0.13-0.385,0.343-0.752,0.638-1.103c0.295-0.35,0.678-0.68,1.147-0.989
					c0.47-0.311,1.048-0.58,1.732-0.811c0.686-0.229,1.482-0.417,2.393-0.563c0.91-0.145,1.95-0.232,3.12-0.263v-0.899
					c0-1.03-0.22-1.793-0.66-2.288s-1.075-0.742-1.905-0.742c-0.6,0-1.097,0.07-1.492,0.21c-0.395,0.141-0.742,0.298-1.042,0.473
					c-0.301,0.175-0.573,0.332-0.817,0.473c-0.246,0.14-0.518,0.21-0.818,0.21c-0.26,0-0.479-0.067-0.659-0.203
					c-0.181-0.135-0.325-0.292-0.436-0.472L306.293,280.472z M314.783,287.146c-1.07,0.051-1.97,0.143-2.7,0.277
					c-0.729,0.136-1.314,0.308-1.755,0.518s-0.755,0.455-0.945,0.735c-0.189,0.28-0.284,0.585-0.284,0.915
					c0,0.65,0.192,1.115,0.577,1.395c0.385,0.28,0.888,0.421,1.508,0.421c0.76,0,1.417-0.138,1.972-0.413
					c0.556-0.274,1.098-0.692,1.628-1.252V287.146z"/>
				<path fill="#FFFFFF" d="M325.628,271.427v22.29h-3.705v-22.29H325.628z"/>
				<path fill="#FFFFFF" d="M329.272,297.392c-0.18-0.149-0.27-0.335-0.27-0.555c0-0.08,0.027-0.17,0.082-0.271
					c0.056-0.1,0.123-0.189,0.203-0.27c0.109-0.12,0.245-0.268,0.405-0.442c0.159-0.175,0.319-0.375,0.479-0.601
					c0.16-0.225,0.308-0.47,0.442-0.734c0.135-0.266,0.237-0.548,0.308-0.848c-0.32,0-0.61-0.058-0.87-0.173
					c-0.26-0.114-0.482-0.272-0.667-0.473c-0.186-0.199-0.33-0.435-0.436-0.704c-0.104-0.271-0.157-0.565-0.157-0.886
					c0-0.279,0.053-0.542,0.157-0.787c0.105-0.245,0.253-0.46,0.442-0.646c0.19-0.185,0.42-0.33,0.69-0.435
					c0.27-0.105,0.564-0.157,0.885-0.157c0.38,0,0.713,0.067,0.998,0.202c0.284,0.135,0.52,0.32,0.705,0.555
					c0.185,0.235,0.324,0.506,0.42,0.811c0.095,0.305,0.143,0.628,0.143,0.968c0,0.479-0.073,0.984-0.218,1.515
					c-0.146,0.53-0.357,1.06-0.638,1.59s-0.628,1.045-1.043,1.545s-0.887,0.96-1.417,1.38L329.272,297.392z"/>
				<path fill="#FFFFFF" d="M357.143,278.852v1.38c0,0.44-0.266,0.711-0.795,0.811l-1.38,0.255c0.21,0.53,0.314,1.11,0.314,1.74
					c0,0.76-0.152,1.447-0.457,2.063c-0.306,0.614-0.728,1.138-1.268,1.567s-1.178,0.763-1.913,0.997
					c-0.734,0.235-1.527,0.353-2.377,0.353c-0.3,0-0.59-0.015-0.87-0.045s-0.555-0.069-0.825-0.12
					c-0.479,0.29-0.72,0.615-0.72,0.976c0,0.31,0.143,0.537,0.428,0.683c0.285,0.145,0.662,0.247,1.132,0.307
					c0.471,0.061,1.006,0.098,1.605,0.113c0.6,0.015,1.215,0.047,1.845,0.097c0.63,0.051,1.245,0.138,1.845,0.263
					c0.601,0.125,1.136,0.322,1.605,0.593c0.47,0.27,0.848,0.638,1.133,1.103s0.427,1.063,0.427,1.792
					c0,0.681-0.167,1.341-0.502,1.98s-0.82,1.21-1.455,1.71s-1.415,0.902-2.34,1.207c-0.925,0.306-1.978,0.458-3.157,0.458
					c-1.16,0-2.171-0.112-3.03-0.338c-0.86-0.225-1.575-0.524-2.146-0.899c-0.569-0.375-0.995-0.808-1.274-1.298
					c-0.28-0.49-0.42-1-0.42-1.53c0-0.72,0.217-1.322,0.652-1.807c0.435-0.485,1.032-0.873,1.792-1.163
					c-0.41-0.21-0.734-0.489-0.975-0.84c-0.24-0.35-0.36-0.81-0.36-1.38c0-0.23,0.043-0.468,0.128-0.713s0.21-0.487,0.375-0.728
					c0.165-0.239,0.372-0.467,0.622-0.683c0.25-0.215,0.545-0.407,0.886-0.577c-0.78-0.42-1.394-0.979-1.838-1.68
					c-0.445-0.7-0.668-1.521-0.668-2.46c0-0.76,0.152-1.448,0.458-2.063c0.305-0.615,0.729-1.141,1.274-1.575
					c0.545-0.436,1.19-0.768,1.936-0.998c0.745-0.229,1.558-0.345,2.438-0.345c0.66,0,1.28,0.067,1.86,0.203
					c0.579,0.135,1.109,0.332,1.59,0.592H357.143z M353.452,294.407c0-0.301-0.09-0.546-0.27-0.735s-0.425-0.338-0.735-0.442
					c-0.31-0.105-0.673-0.183-1.087-0.232c-0.415-0.05-0.855-0.088-1.32-0.112c-0.465-0.025-0.945-0.048-1.44-0.068
					c-0.494-0.02-0.978-0.06-1.447-0.119c-0.41,0.229-0.742,0.5-0.997,0.81s-0.383,0.67-0.383,1.08c0,0.27,0.067,0.522,0.202,0.758
					c0.136,0.234,0.351,0.437,0.646,0.607c0.295,0.17,0.677,0.302,1.147,0.397c0.47,0.095,1.045,0.143,1.725,0.143
					c0.69,0,1.285-0.053,1.785-0.158c0.5-0.104,0.912-0.25,1.237-0.435c0.325-0.186,0.563-0.405,0.713-0.66
					S353.452,294.707,353.452,294.407z M349.268,285.646c0.46,0,0.859-0.063,1.2-0.188c0.34-0.125,0.622-0.297,0.848-0.518
					c0.225-0.22,0.395-0.484,0.51-0.795c0.114-0.31,0.172-0.649,0.172-1.02c0-0.76-0.228-1.362-0.682-1.808
					c-0.456-0.445-1.138-0.668-2.048-0.668s-1.593,0.223-2.048,0.668s-0.683,1.048-0.683,1.808c0,0.359,0.058,0.695,0.173,1.005
					s0.285,0.577,0.51,0.803c0.226,0.225,0.511,0.399,0.855,0.524S348.817,285.646,349.268,285.646z"/>
				<path fill="#FFFFFF" d="M362.978,280.997c0.479-0.92,1.05-1.643,1.71-2.168c0.66-0.524,1.439-0.787,2.34-0.787
					c0.71,0,1.28,0.155,1.71,0.465l-0.24,2.775c-0.05,0.18-0.122,0.307-0.217,0.382c-0.096,0.075-0.223,0.112-0.383,0.112
					c-0.15,0-0.373-0.024-0.668-0.074s-0.582-0.075-0.862-0.075c-0.41,0-0.775,0.06-1.095,0.18c-0.32,0.12-0.607,0.293-0.862,0.518
					s-0.48,0.498-0.676,0.817c-0.194,0.32-0.377,0.686-0.547,1.095v9.48h-3.705v-15.39h2.175c0.38,0,0.646,0.067,0.795,0.202
					c0.15,0.135,0.25,0.378,0.3,0.728L362.978,280.997z"/>
				<path fill="#FFFFFF" d="M370.117,280.472c1.771-1.62,3.9-2.43,6.391-2.43c0.899,0,1.704,0.147,2.415,0.442
					c0.71,0.295,1.31,0.705,1.8,1.229c0.489,0.525,0.862,1.153,1.117,1.883c0.255,0.73,0.383,1.53,0.383,2.4v9.72h-1.681
					c-0.35,0-0.62-0.053-0.81-0.157c-0.19-0.105-0.34-0.317-0.45-0.638l-0.33-1.11c-0.39,0.351-0.77,0.658-1.14,0.923
					s-0.755,0.487-1.155,0.667c-0.399,0.181-0.827,0.317-1.282,0.413c-0.455,0.095-0.958,0.143-1.508,0.143
					c-0.649,0-1.25-0.088-1.8-0.263s-1.025-0.438-1.425-0.787c-0.4-0.351-0.71-0.785-0.93-1.306c-0.221-0.52-0.33-1.125-0.33-1.814
					c0-0.391,0.064-0.777,0.194-1.163c0.13-0.385,0.343-0.752,0.638-1.103c0.295-0.35,0.678-0.68,1.147-0.989
					c0.47-0.311,1.048-0.58,1.732-0.811c0.686-0.229,1.482-0.417,2.393-0.563c0.91-0.145,1.95-0.232,3.12-0.263v-0.899
					c0-1.03-0.22-1.793-0.66-2.288s-1.075-0.742-1.905-0.742c-0.6,0-1.097,0.07-1.492,0.21c-0.395,0.141-0.742,0.298-1.042,0.473
					c-0.301,0.175-0.573,0.332-0.817,0.473c-0.246,0.14-0.518,0.21-0.818,0.21c-0.26,0-0.479-0.067-0.659-0.203
					c-0.181-0.135-0.325-0.292-0.436-0.472L370.117,280.472z M378.607,287.146c-1.07,0.051-1.97,0.143-2.7,0.277
					c-0.729,0.136-1.314,0.308-1.755,0.518s-0.755,0.455-0.945,0.735c-0.189,0.28-0.284,0.585-0.284,0.915
					c0,0.65,0.192,1.115,0.577,1.395c0.385,0.28,0.888,0.421,1.508,0.421c0.76,0,1.417-0.138,1.972-0.413
					c0.556-0.274,1.098-0.692,1.628-1.252V287.146z"/>
				<path fill="#FFFFFF" d="M385.702,293.717v-15.39h2.265c0.48,0,0.795,0.225,0.945,0.675l0.24,1.14
					c0.27-0.3,0.552-0.575,0.848-0.825c0.294-0.249,0.609-0.465,0.944-0.645s0.695-0.322,1.08-0.428
					c0.385-0.104,0.808-0.157,1.268-0.157c0.97,0,1.768,0.263,2.393,0.787c0.625,0.525,1.093,1.223,1.402,2.093
					c0.24-0.51,0.54-0.947,0.9-1.313c0.359-0.365,0.755-0.662,1.185-0.893c0.43-0.229,0.888-0.399,1.373-0.51
					c0.484-0.11,0.972-0.165,1.462-0.165c0.85,0,1.605,0.13,2.266,0.39c0.659,0.261,1.215,0.641,1.665,1.141
					c0.449,0.5,0.792,1.109,1.027,1.83c0.234,0.72,0.353,1.545,0.353,2.475v9.795h-3.705v-9.795c0-0.98-0.216-1.718-0.646-2.213
					s-1.06-0.742-1.89-0.742c-0.38,0-0.732,0.065-1.058,0.195s-0.61,0.317-0.854,0.563c-0.246,0.245-0.438,0.553-0.578,0.922
					c-0.14,0.37-0.21,0.795-0.21,1.275v9.795h-3.72v-9.795c0-1.03-0.208-1.78-0.623-2.25s-1.022-0.705-1.822-0.705
					c-0.54,0-1.042,0.133-1.508,0.397c-0.465,0.265-0.897,0.628-1.297,1.088v11.265H385.702z"/>
				<path fill="#FFFFFF" d="M417.637,278.087c1.141,0,2.178,0.185,3.113,0.555c0.935,0.37,1.734,0.896,2.399,1.575
					s1.178,1.51,1.538,2.49c0.359,0.979,0.54,2.075,0.54,3.285c0,1.22-0.181,2.319-0.54,3.3c-0.36,0.979-0.873,1.814-1.538,2.505
					c-0.665,0.689-1.465,1.22-2.399,1.59c-0.936,0.37-1.973,0.555-3.113,0.555c-1.149,0-2.194-0.185-3.135-0.555
					s-1.742-0.9-2.407-1.59c-0.665-0.69-1.181-1.525-1.545-2.505c-0.365-0.98-0.548-2.08-0.548-3.3c0-1.21,0.183-2.306,0.548-3.285
					c0.364-0.98,0.88-1.811,1.545-2.49s1.467-1.205,2.407-1.575S416.487,278.087,417.637,278.087z M417.637,291.092
					c1.28,0,2.228-0.43,2.843-1.29s0.923-2.12,0.923-3.78c0-1.659-0.308-2.925-0.923-3.795s-1.563-1.305-2.843-1.305
					c-1.3,0-2.263,0.438-2.887,1.313c-0.626,0.875-0.938,2.138-0.938,3.787c0,1.65,0.312,2.908,0.938,3.772
					C415.374,290.659,416.337,291.092,417.637,291.092z"/>
				<path fill="#FFFFFF" d="M437.452,281.327c-0.1,0.16-0.205,0.272-0.314,0.337c-0.11,0.065-0.25,0.098-0.42,0.098
					c-0.181,0-0.373-0.05-0.578-0.15c-0.205-0.1-0.442-0.212-0.712-0.337c-0.271-0.125-0.578-0.237-0.923-0.338
					c-0.345-0.1-0.753-0.149-1.223-0.149c-0.729,0-1.303,0.155-1.718,0.465s-0.622,0.715-0.622,1.215
					c0,0.33,0.107,0.607,0.322,0.832c0.215,0.226,0.5,0.423,0.855,0.593c0.354,0.17,0.757,0.322,1.207,0.458
					c0.45,0.135,0.908,0.282,1.373,0.442s0.922,0.343,1.372,0.547c0.45,0.205,0.853,0.466,1.208,0.78
					c0.354,0.315,0.64,0.692,0.854,1.133s0.322,0.97,0.322,1.59c0,0.74-0.132,1.423-0.397,2.048
					c-0.265,0.625-0.657,1.165-1.177,1.62c-0.521,0.455-1.163,0.81-1.928,1.064c-0.766,0.255-1.647,0.383-2.647,0.383
					c-0.53,0-1.048-0.048-1.553-0.143c-0.505-0.096-0.99-0.228-1.455-0.397s-0.895-0.37-1.29-0.601
					c-0.395-0.229-0.742-0.479-1.042-0.75l0.854-1.409c0.11-0.17,0.24-0.301,0.391-0.391c0.149-0.09,0.34-0.135,0.569-0.135
					c0.23,0,0.447,0.065,0.652,0.195s0.442,0.27,0.713,0.42c0.27,0.149,0.587,0.29,0.952,0.42s0.828,0.194,1.388,0.194
					c0.44,0,0.817-0.052,1.133-0.157c0.314-0.104,0.575-0.242,0.78-0.412c0.204-0.17,0.354-0.368,0.449-0.593
					c0.096-0.225,0.143-0.457,0.143-0.697c0-0.36-0.107-0.655-0.322-0.885c-0.215-0.23-0.5-0.431-0.855-0.601
					c-0.354-0.17-0.76-0.322-1.215-0.457c-0.455-0.136-0.92-0.282-1.395-0.442c-0.476-0.16-0.94-0.348-1.396-0.563
					s-0.859-0.488-1.215-0.818c-0.354-0.329-0.64-0.734-0.854-1.215c-0.216-0.479-0.323-1.06-0.323-1.739
					c0-0.631,0.125-1.23,0.375-1.801c0.25-0.569,0.618-1.067,1.103-1.492c0.485-0.425,1.09-0.765,1.815-1.02
					c0.725-0.256,1.563-0.383,2.513-0.383c1.06,0,2.024,0.175,2.895,0.524c0.87,0.351,1.595,0.811,2.175,1.381L437.452,281.327z"/>
				<path fill="#FFFFFF" d="M442.672,284.312c0-2.06-0.247-4.087-0.742-6.082s-1.208-3.862-2.138-5.603
					c-0.11-0.21-0.173-0.393-0.188-0.548c-0.016-0.154-0.003-0.29,0.037-0.405c0.04-0.114,0.103-0.215,0.188-0.3
					s0.183-0.157,0.293-0.217l1.649-0.99c0.74,1.14,1.37,2.282,1.891,3.428c0.52,1.145,0.944,2.302,1.274,3.472
					s0.57,2.358,0.721,3.563c0.149,1.205,0.225,2.433,0.225,3.683s-0.075,2.476-0.225,3.675c-0.15,1.2-0.391,2.386-0.721,3.556
					s-0.755,2.33-1.274,3.479c-0.521,1.15-1.15,2.295-1.891,3.436l-1.649-1.005c-0.11-0.061-0.208-0.133-0.293-0.218
					s-0.147-0.186-0.188-0.3c-0.04-0.115-0.053-0.25-0.037-0.405c0.015-0.155,0.077-0.333,0.188-0.532
					c0.93-1.75,1.643-3.62,2.138-5.61S442.672,286.372,442.672,284.312z"/>
			</g>
		</g>
		
			<line fill="#337C98" stroke="#72B5CF" stroke-width="11.1307" stroke-linecap="round" stroke-linejoin="round" stroke-miterlimit="10" x1="6.851" y1="88.823" x2="667.243" y2="88.823"/>
		
			<line fill="#337C98" stroke="#72B5CF" stroke-width="11.1307" stroke-linecap="round" stroke-linejoin="round" stroke-miterlimit="10" x1="6.851" y1="228.823" x2="667.243" y2="228.823"/>
	</g>
</g>
</svg>
